<svg xmlns="http://www.w3.org/2000/svg" xmlns:xlink="http://www.w3.org/1999/xlink" version="1.1" width="436px" height="53px" viewBox="0 0 436 53">
	<path d="M19.696,52 L22.792,52 L22.792,4.48 L41.584,4.48 L41.584,1.6 L0.904,1.6 L0.904,4.48 L19.696,4.48 L19.696,52 Z M49.936,52 L53.032,52 L53.032,28.168 L85,28.168 L85,52 L88.096,52 L88.096,1.6 L85,1.6 L85,25.288 L53.032,25.288 L53.032,1.6 L49.936,1.6 L49.936,52 Z M103.648,52 L132.592,52 L132.592,49.12 L106.744,49.12 L106.744,28.024 L126.832,28.024 L126.832,25.144 L106.744,25.144 L106.744,4.48 L131.224,4.48 L131.224,1.6 L103.648,1.6 L103.648,52 Z M161.176,26.44 C161.176,41.272 172.624,52.864 186.664,52.864 C200.704,52.864 212.152,41.272 212.152,26.44 C212.152,11.968 200.704,0.736 186.664,0.736 C172.624,0.736 161.176,11.968 161.176,26.44 Z M164.416,26.44 C164.416,13.552 174.352,3.688 186.664,3.688 C198.976,3.688 208.912,13.552 208.912,26.44 C208.912,39.688 198.976,49.912 186.664,49.912 C174.352,49.912 164.416,39.688 164.416,26.44 Z M224.176,52 L227.272,52 L227.272,29.68 L241.744,29.68 L253.696,52 L257.368,52 L246.064,31.048 C245.416,29.824 244.912,29.248 244.912,29.248 L244.912,29.104 C250.816,27.808 254.992,22.408 254.992,15.208 C254.992,9.448 252.184,5.2 248.008,3.112 C245.992,2.104 243.616,1.6 238.936,1.6 L224.176,1.6 L224.176,52 Z M227.272,26.8 L227.272,4.48 L238.792,4.48 C242.824,4.48 244.408,4.84 245.848,5.488 C249.52,7.144 251.752,10.744 251.752,15.208 C251.752,22.048 247.576,26.8 240.952,26.8 L227.272,26.8 Z M265.504,26.44 C265.504,41.056 276.088,52.864 290.776,52.864 C303.016,52.864 309.784,45.232 309.784,45.232 L307.84,43.072 C307.84,43.072 301.576,49.912 290.776,49.912 C278.104,49.912 268.744,39.544 268.744,26.44 C268.744,13.408 278.176,3.688 290.56,3.688 C300.64,3.688 306.616,9.376 306.616,9.376 L308.488,7.072 C308.488,7.072 302.44,0.736 290.488,0.736 C276.304,0.736 265.504,11.824 265.504,26.44 Z M321.736,52 L324.832,52 L324.832,28.168 L356.8,28.168 L356.8,52 L359.896,52 L359.896,1.6 L356.8,1.6 L356.8,25.288 L324.832,25.288 L324.832,1.6 L321.736,1.6 L321.736,52 Z M375.448,52 L378.544,52 L378.544,1.6 L375.448,1.6 L375.448,52 Z M394.096,52 L409.936,52 C424.912,52 435.064,42.856 435.064,26.8 C435.064,10.816 424.912,1.6 409.936,1.6 L394.096,1.6 L394.096,52 Z M397.192,49.12 L397.192,4.48 L409.432,4.48 C422.824,4.48 431.824,12.4 431.824,26.8 C431.824,41.272 422.824,49.12 409.432,49.12 L397.192,49.12 Z" fill="#ffffff"></path>
</svg>