<svg xmlns="http://www.w3.org/2000/svg" viewBox="0 0 436 53"><title>The Orchid</title><path d="M19.696 52h3.096V4.48h18.792V1.6H.904v2.88h18.792V52zm30.24 0h3.096V28.168H85V52h3.096V1.6H85v23.688H53.032V1.6h-3.096V52zm53.712 0h28.944v-2.88h-25.848V28.024h20.088v-2.88h-20.088V4.48h24.48V1.6h-27.576V52zm57.528-25.56c0 14.832 11.448 26.424 25.488 26.424s25.488-11.592 25.488-26.424c0-14.472-11.448-25.704-25.488-25.704s-25.488 11.232-25.488 25.704zm3.24 0c0-12.888 9.936-22.752 22.248-22.752 12.312 0 22.248 9.864 22.248 22.752 0 13.248-9.936 23.472-22.248 23.472-12.312 0-22.248-10.224-22.248-23.472zM224.176 52h3.096V29.68h14.472L253.696 52h3.672l-11.304-20.952c-.648-1.224-1.152-1.8-1.152-1.8v-.144c5.904-1.296 10.08-6.696 10.08-13.896 0-5.76-2.808-10.008-6.984-12.096-2.016-1.008-4.392-1.512-9.072-1.512h-14.76V52zm3.096-25.2V4.48h11.52c4.032 0 5.616.36 7.056 1.008 3.672 1.656 5.904 5.256 5.904 9.72 0 6.84-4.176 11.592-10.8 11.592h-13.68zm38.232-.36c0 14.616 10.584 26.424 25.272 26.424 12.24 0 19.008-7.632 19.008-7.632l-1.944-2.16s-6.264 6.84-17.064 6.84c-12.672 0-22.032-10.368-22.032-23.472 0-13.032 9.432-22.752 21.816-22.752 10.08 0 16.056 5.688 16.056 5.688l1.872-2.304s-6.048-6.336-18-6.336c-14.184 0-24.984 11.088-24.984 25.704zM321.736 52h3.096V28.168H356.8V52h3.096V1.6H356.8v23.688h-31.968V1.6h-3.096V52zm53.712 0h3.096V1.6h-3.096V52zm18.648 0h15.84c14.976 0 25.128-9.144 25.128-25.2 0-15.984-10.152-25.2-25.128-25.2h-15.84V52zm3.096-2.88V4.48h12.24c13.392 0 22.392 7.92 22.392 22.32 0 14.472-9 22.32-22.392 22.32h-12.24z"/></svg>
