<svg baseProfile="tiny-ps" version="1.2" viewBox="0 0 512 512" xmlns="http://www.w3.org/2000/svg">
  <title>The Orchid</title>

  <path fill="#101010" d="M0 0h512v512H0z"/>
  <path d="M370.36 470h37.4c35.36 0 59.33-21.59 59.33-59.5 0-37.74-23.97-59.5-59.33-59.5h-37.4v119Zm7.31-6.8V357.8h28.9c31.62 0 52.87 18.7 52.87 52.7 0 34.17-21.25 52.7-52.87 52.7h-28.9ZM253.36 470h7.31V351h-7.31zM53.36 470h7.31v-56.27h75.48V470h7.31V351h-7.31v55.93H60.67V351h-7.31zM362.37 255.65c0 34.51 24.99 62.39 59.67 62.39 28.9 0 44.88-18.02 44.88-18.02l-4.59-5.1s-14.79 16.15-40.29 16.15c-29.92 0-52.02-24.48-52.02-55.42 0-30.77 22.27-53.72 51.51-53.72 23.8 0 37.91 13.43 37.91 13.43l4.42-5.44s-14.28-14.96-42.5-14.96c-33.49 0-58.99 26.18-58.99 60.69ZM229.36 316h7.31v-52.7h34.17l28.22 52.7h8.67l-26.69-49.47c-1.53-2.89-2.72-4.25-2.72-4.25v-.34c13.94-3.06 23.8-15.81 23.8-32.81 0-13.6-6.63-23.63-16.49-28.56-4.76-2.38-10.37-3.57-21.42-3.57h-34.85v119Zm7.31-59.5v-52.7h27.2c9.52 0 13.26.85 16.66 2.38 8.67 3.91 13.94 12.41 13.94 22.95 0 16.15-9.86 27.37-25.5 27.37h-32.3ZM45.03 255.65c0 35.02 27.03 62.39 60.18 62.39s60.18-27.37 60.18-62.39c0-34.17-27.03-60.69-60.18-60.69s-60.18 26.52-60.18 60.69Zm7.65 0c0-30.43 23.46-53.72 52.53-53.72s52.53 23.29 52.53 53.72c0 31.28-23.46 55.42-52.53 55.42s-52.53-24.14-52.53-55.42ZM399.36 163h68.34v-6.8h-61.03v-49.81h47.43v-6.8h-47.43V50.8h57.8V44h-65.11zM211.36 163h7.31v-56.27h75.48V163h7.31V44h-7.31v55.93h-75.48V44h-7.31zM79.73 163h7.31V50.8h44.37V44H35.36v6.8h44.37z" fill="#fff"/>
</svg>
